<?xml version="1.0" standalone="no"?>
<!DOCTYPE svg PUBLIC "-//W3C//DTD SVG 20010904//EN"
 "http://www.w3.org/TR/2001/REC-SVG-20010904/DTD/svg10.dtd">
<svg version="1.0" xmlns="http://www.w3.org/2000/svg"
 width="300.000000pt" height="300.000000pt" viewBox="0 0 300.000000 300.000000"
 preserveAspectRatio="xMidYMid meet">
<metadata>
Created by potrace 1.10, written by Peter Selinger 2001-2011
</metadata>
<g transform="translate(0.000000,300.000000) scale(0.100000,-0.100000)"
fill="#000000" stroke="none">
<path d="M747 2253 l-87 -88 332 -332 333 -333 -333 -333 -332 -332 87 -88 88
-87 332 332 333 333 333 -333 332 -332 88 87 87 88 -332 332 -333 333 333 333
332 332 -87 88 -88 87 -332 -332 -333 -333 -333 333 -332 332 -88 -87z m398
-273 c165 -165 310 -307 322 -315 16 -11 28 -13 48 -5 14 5 163 147 332 315
168 168 310 305 315 305 13 0 118 -105 118 -118 0 -5 -137 -148 -306 -317
-168 -168 -309 -318 -315 -332 -7 -19 -5 -31 10 -51 11 -15 153 -160 315 -322
163 -162 296 -299 296 -303 0 -12 -48 -62 -88 -94 l-34 -25 -318 317 c-346
344 -330 333 -390 281 -13 -11 -154 -150 -313 -308 -158 -159 -293 -288 -299
-288 -14 0 -118 102 -118 117 0 6 139 151 310 322 171 171 310 315 310 320 0
5 3 17 6 26 5 12 -78 101 -312 335 l-318 319 19 23 c35 43 90 96 100 97 5 1
145 -134 310 -299z"/>
</g>
</svg>
